HIERARCHY
ROOT Hips
{
  OFFSET 672.998 90.1962 275.313
  CHANNELS 6 Xposition Yposition Zposition Zrotation Xrotation Yrotation
  JOINT RightUpLeg
  {
    OFFSET -9.31841 -1.6209 0.0559787
    CHANNELS 3 Zrotation Xrotation Yrotation
    JOINT RightLeg
    {
      OFFSET -0.0684531 -41.8708 -0.0373107
      CHANNELS 3 Zrotation Xrotation Yrotation
      JOINT RightFoot
      {
        OFFSET 0.568603 -40.4676 0.273758
        CHANNELS 3 Zrotation Xrotation Yrotation
        End Site
        {
          OFFSET 0 -7.69 17.5
        }
      }
    }
  }
  JOINT LeftUpLeg
  {
    OFFSET 9.2691 -1.58989 -0.00732791
    CHANNELS 3 Zrotation Xrotation Yrotation
    JOINT LeftLeg
    {
      OFFSET 0.00811838 -41.8709 -0.0346618
      CHANNELS 3 Zrotation Xrotation Yrotation
      JOINT LeftFoot
      {
        OFFSET -1.30659 -42.6983 -0.641335
        CHANNELS 3 Zrotation Xrotation Yrotation
        End Site
        {
          OFFSET 0 -7.69 17.5
        }
      }
    }
  }
  JOINT Spine
  {
    OFFSET 0.0262351 14.2998 0.0450285
    CHANNELS 3 Zrotation Xrotation Yrotation
    JOINT Spine1
    {
      OFFSET 0.0149676 9.72129 0.026936
      CHANNELS 3 Zrotation Xrotation Yrotation
      JOINT Spine2
      {
        OFFSET 0.00806361 10.1231 0.0120352
        CHANNELS 3 Zrotation Xrotation Yrotation
        JOINT Spine3
        {
          OFFSET 0.015413 9.72195 0.014207
          CHANNELS 3 Zrotation Xrotation Yrotation
          JOINT Neck
          {
            OFFSET 0.0199721 10.3864 0.171661
            CHANNELS 3 Zrotation Xrotation Yrotation
            JOINT Head
            {
              OFFSET 0.122561 9.45761 0.0825401
              CHANNELS 3 Zrotation Xrotation Yrotation
              End Site
              {
                OFFSET 0 15.95 0
              }
            }
          }
          JOINT RightShoulder
          {
            OFFSET -3.21667 6.92734 0.181141
            CHANNELS 3 Zrotation Xrotation Yrotation
            JOINT RightArm
            {
              OFFSET -12.7874 -0.0119469 0.180712
              CHANNELS 3 Zrotation Xrotation Yrotation
              JOINT RightForeArm
              {
                OFFSET -26.4411 -0.0552213 -0.0126356
                CHANNELS 3 Zrotation Xrotation Yrotation
                JOINT RightHand
                {
                  OFFSET -25.9517 -0.0175502 0.0690925
                  CHANNELS 3 Zrotation Xrotation Yrotation
                  JOINT RightHandThumb1
                  {
                    OFFSET -2.48905 0.190105 3.12053
                    CHANNELS 3 Zrotation Xrotation Yrotation
                    JOINT RightHandThumb2
                    {
                      OFFSET -3.68274 0 0
                      CHANNELS 3 Zrotation Xrotation Yrotation
                      JOINT RightHandThumb3
                      {
                        OFFSET -2.55832 0 0
                        CHANNELS 3 Zrotation Xrotation Yrotation
                        End Site
                        {
                          OFFSET -2.194 0 0
                        }
                      }
                    }
                  }
                  JOINT RightInHandIndex
                  {
                    OFFSET -3.22368 0.508421 1.97842
                    CHANNELS 3 Zrotation Xrotation Yrotation
                    JOINT RightHandIndex1
                    {
                      OFFSET -5.21684 -0.091368 0.999158
                      CHANNELS 3 Zrotation Xrotation Yrotation
                      JOINT RightHandIndex2
                      {
                        OFFSET -3.61937 0 0
                        CHANNELS 3 Zrotation Xrotation Yrotation
                        JOINT RightHandIndex3
                        {
                          OFFSET -2.0521 0 0
                          CHANNELS 3 Zrotation Xrotation Yrotation
                          End Site
                          {
                            OFFSET -1.805 0 0
                          }
                        }
                      }
                    }
                  }
                  JOINT RightInHandMiddle
                  {
                    OFFSET -3.38211 0.517263 0.756737
                    CHANNELS 3 Zrotation Xrotation Yrotation
                    JOINT RightHandMiddle1
                    {
                      OFFSET -5.17411 -0.084 0.313895
                      CHANNELS 3 Zrotation Xrotation Yrotation
                      JOINT RightHandMiddle2
                      {
                        OFFSET -3.94947 0 0
                        CHANNELS 3 Zrotation Xrotation Yrotation
                        JOINT RightHandMiddle3
                        {
                          OFFSET -2.47579 0 0
                          CHANNELS 3 Zrotation Xrotation Yrotation
                          End Site
                          {
                            OFFSET -1.975 0 0
                          }
                        }
                      }
                    }
                  }
                  JOINT RightInHandRing
                  {
                    OFFSET -3.36516 0.537895 -0.128947
                    CHANNELS 3 Zrotation Xrotation Yrotation
                    JOINT RightHandRing1
                    {
                      OFFSET -4.63474 -0.022105 -0.478947
                      CHANNELS 3 Zrotation Xrotation Yrotation
                      JOINT RightHandRing2
                      {
                        OFFSET -3.44238 0 0
                        CHANNELS 3 Zrotation Xrotation Yrotation
                        JOINT RightHandRing3
                        {
                          OFFSET -2.3881 0 0
                          CHANNELS 3 Zrotation Xrotation Yrotation
                          End Site
                          {
                            OFFSET -1.857 0 0
                          }
                        }
                      }
                    }
                  }
                  JOINT RightInHandPinky
                  {
                    OFFSET -3.16105 0.469368 -1.20179
                    CHANNELS 3 Zrotation Xrotation Yrotation
                    JOINT RightHandPinky1
                    {
                      OFFSET -4.14105 -0.022105 -1.09053
                      CHANNELS 3 Zrotation Xrotation Yrotation
                      JOINT RightHandPinky2
                      {
                        OFFSET -2.75653 0 0
                        CHANNELS 3 Zrotation Xrotation Yrotation
                        JOINT RightHandPinky3
                        {
                          OFFSET -1.74189 0 0
                          CHANNELS 3 Zrotation Xrotation Yrotation
                          End Site
                          {
                            OFFSET -1.645 0 0
                          }
                        }
                      }
                    }
                  }
                }
              }
            }
          }
          JOINT LeftShoulder
          {
            OFFSET 3.24181 6.96466 0.0153087
            CHANNELS 3 Zrotation Xrotation Yrotation
            JOINT LeftArm
            {
              OFFSET 12.7637 0.0263587 -0.0591898
              CHANNELS 3 Zrotation Xrotation Yrotation
              JOINT LeftForeArm
              {
                OFFSET 26.5032 0.0171469 -0.0533605
                CHANNELS 3 Zrotation Xrotation Yrotation
                JOINT LeftHand
                {
                  OFFSET 26.017 0.224981 -0.0848175
                  CHANNELS 3 Zrotation Xrotation Yrotation
                  JOINT LeftHandThumb1
                  {
                    OFFSET 2.48905 0.190105 3.12053
                    CHANNELS 3 Zrotation Xrotation Yrotation
                    JOINT LeftHandThumb2
                    {
                      OFFSET 3.68274 0 0
                      CHANNELS 3 Zrotation Xrotation Yrotation
                      JOINT LeftHandThumb3
                      {
                        OFFSET 2.55832 0 0
                        CHANNELS 3 Zrotation Xrotation Yrotation
                        End Site
                        {
                          OFFSET 2.194 0 0
                        }
                      }
                    }
                  }
                  JOINT LeftInHandIndex
                  {
                    OFFSET 3.22368 0.508421 1.97842
                    CHANNELS 3 Zrotation Xrotation Yrotation
                    JOINT LeftHandIndex1
                    {
                      OFFSET 5.21684 -0.091368 0.999158
                      CHANNELS 3 Zrotation Xrotation Yrotation
                      JOINT LeftHandIndex2
                      {
                        OFFSET 3.61937 0 0
                        CHANNELS 3 Zrotation Xrotation Yrotation
                        JOINT LeftHandIndex3
                        {
                          OFFSET 2.0521 0 0
                          CHANNELS 3 Zrotation Xrotation Yrotation
                          End Site
                          {
                            OFFSET 1.805 0 0
                          }
                        }
                      }
                    }
                  }
                  JOINT LeftInHandMiddle
                  {
                    OFFSET 3.38211 0.517263 0.756737
                    CHANNELS 3 Zrotation Xrotation Yrotation
                    JOINT LeftHandMiddle1
                    {
                      OFFSET 5.17411 -0.084 0.313895
                      CHANNELS 3 Zrotation Xrotation Yrotation
                      JOINT LeftHandMiddle2
                      {
                        OFFSET 3.94947 0 0
                        CHANNELS 3 Zrotation Xrotation Yrotation
                        JOINT LeftHandMiddle3
                        {
                          OFFSET 2.47579 0 0
                          CHANNELS 3 Zrotation Xrotation Yrotation
                          End Site
                          {
                            OFFSET 1.975 0 0
                          }
                        }
                      }
                    }
                  }
                  JOINT LeftInHandRing
                  {
                    OFFSET 3.36516 0.537895 -0.128947
                    CHANNELS 3 Zrotation Xrotation Yrotation
                    JOINT LeftHandRing1
                    {
                      OFFSET 4.63474 -0.022105 -0.478947
                      CHANNELS 3 Zrotation Xrotation Yrotation
                      JOINT LeftHandRing2
                      {
                        OFFSET 3.44238 0 0
                        CHANNELS 3 Zrotation Xrotation Yrotation
                        JOINT LeftHandRing3
                        {
                          OFFSET 2.3881 0 0
                          CHANNELS 3 Zrotation Xrotation Yrotation
                          End Site
                          {
                            OFFSET 1.857 0 0
                          }
                        }
                      }
                    }
                  }
                  JOINT LeftInHandPinky
                  {
                    OFFSET 3.16105 0.469368 -1.20179
                    CHANNELS 3 Zrotation Xrotation Yrotation
                    JOINT LeftHandPinky1
                    {
                      OFFSET 4.14105 -0.022105 -1.09053
                      CHANNELS 3 Zrotation Xrotation Yrotation
                      JOINT LeftHandPinky2
                      {
                        OFFSET 2.75653 0 0
                        CHANNELS 3 Zrotation Xrotation Yrotation
                        JOINT LeftHandPinky3
                        {
                          OFFSET 1.74189 0 0
                          CHANNELS 3 Zrotation Xrotation Yrotation
                          End Site
                          {
                            OFFSET 1.645 0 0
                          }
                        }
                      }
                    }
                  }
                }
              }
            }
          }
        }
      }
    }
  }
}
MOTION
Frames:	5
Frame Time:	0.00833333
682.826 90.044 262.253 31.2242 27.2428 -47.6495 -33.23 -57.1701 -30.1797 0.916373 26.0686 -23.3637 11.1105 0.283378 22.935 15.215 -69.1863 -8.7813 -7.92477 32.6218 3.03821 -10.3047 -7.93669 9.54215 7.12466 7.25482 -2.19096 1.75163 1.88929 -0.337969 2.90195 3.14397 -0.470312 -0.45494 -0.832254 0.0821563 -0.456359 -0.838233 0.0874888 -8.1756 -14.8196 1.59049 -4.40475 -8.46812 -4.1472 73.7046 15.2472 66.1799 8.29875 -22.9194 -7.49081 39.3903 -12.6714 -4.41708 28.184 10.7294 19.1592 1.878e-15 3.47873e-16 -10 2.57798e-15 2.48481e-17 -10 1.05934e-30 -6.36111e-15 9.54166e-15 19.9818 0.871897 2.3964 24 -3.18055e-15 -9.54166e-15 20 1.59028e-15 3.18055e-15 1.05934e-30 -6.36111e-15 9.54166e-15 20 0 -6.36111e-15 24 -1.59028e-15 -1.27222e-14 20 -1.59028e-15 -6.36111e-15 1.05934e-30 -6.36111e-15 9.54166e-15 19.9748 -1.02565 -2.81938 24 -2.78299e-15 9.54166e-15 20 -1.59028e-15 -1.27222e-14 1.05934e-30 -6.36111e-15 9.54166e-15 19.7815 -3.00948 -8.30515 24 -3.97569e-16 3.18055e-15 20 1.59028e-15 -0 -0.113477 -10.5134 -27.6798 -38.9765 38.1359 -75.948 41.5568 -64.7633 38.2152 7.23252 13.7011 -3.55791 -28.184 10.7294 -19.1592 1.12164e-15 -6.36111e-15 10 8.41226e-16 -4.77083e-15 10 0 0 -9.93923e-16 -19.9818 0.871897 -2.3964 -24 4.77083e-15 -2.8625e-14 -20 6.36111e-15 -2.06736e-14 0 0 -9.93923e-16 -20 3.18055e-15 -1.82882e-14 -24 0 -2.54444e-14 -20 9.54166e-15 -1.27222e-14 0 0 -9.93923e-16 -19.9748 -1.02565 2.81938 -24 7.95139e-15 -2.06736e-14 -20 6.36111e-15 -2.38542e-14 0 0 -9.93923e-16 -19.7815 -3.00948 8.30515 -24 3.18055e-15 -2.06736e-14 -20 6.36111e-15 -1.74931e-14 
682.817 90.0337 262.254 31.2222 27.1336 -47.7995 -33.0282 -57.2182 -29.8989 0.864012 26.0744 -23.3054 11.1199 0.304885 22.9307 15.4651 -69.0718 -8.48469 -7.94778 32.6858 3.02048 -10.3076 -8.01758 9.60473 7.10835 7.26699 -2.19628 1.74753 1.89249 -0.337953 2.89497 3.14942 -0.471529 -0.458688 -0.831969 0.0863617 -0.460128 -0.838 0.091741 -8.23646 -14.8082 1.66568 -4.27672 -8.36592 -4.13847 73.4657 15.2061 66.1322 8.51605 -23.4154 -6.97636 39.6786 -12.9069 -3.4665 28.184 10.7294 19.1592 1.54582e-14 3.52843e-15 -10 9.86319e-15 4.42296e-15 -10 6.36111e-15 0 6.36111e-15 19.9818 0.871897 2.3964 24 2.38542e-15 1.90833e-14 20 -1.59028e-15 3.18055e-15 6.36111e-15 0 6.36111e-15 20 3.97569e-15 -0 24 -1.59028e-15 9.54166e-15 20 3.18055e-15 3.18055e-15 6.36111e-15 0 6.36111e-15 19.9748 -1.02565 -2.81938 24 7.95139e-16 2.54444e-14 20 1.59028e-15 -0 6.36111e-15 0 6.36111e-15 19.7815 -3.00948 -8.30515 24 -7.95139e-16 6.36111e-15 20 -4.77083e-15 -0 -0.145181 -10.5076 -27.7132 -38.7696 38.1379 -76.0963 41.2765 -64.426 38.0646 7.25205 13.6076 -3.49557 -28.184 10.7294 -19.1592 -5.89842e-15 -3.18055e-15 10 5.60818e-16 -3.18055e-15 10 -2.20695e-32 3.18055e-15 3.97569e-16 -19.9818 0.871897 -2.3964 -24 -1.59028e-15 -3.18055e-15 -20 4.77083e-15 -7.95139e-15 -2.20695e-32 3.18055e-15 3.97569e-16 -20 0 -3.97569e-15 -24 4.77083e-15 -3.18055e-15 -20 1.59028e-15 -3.18055e-15 -2.20695e-32 3.18055e-15 3.97569e-16 -19.9748 -1.02565 2.81938 -24 -3.18055e-15 -0 -20 4.77083e-15 6.36111e-15 -2.20695e-32 3.18055e-15 3.97569e-16 -19.7815 -3.00948 8.30515 -24 -3.18055e-15 -3.18055e-15 -20 3.18055e-15 -9.54166e-15 
682.816 90.0228 262.254 31.2201 27.0271 -47.9525 -32.8263 -57.2661 -29.6223 0.81348 26.0792 -23.243 11.1266 0.326351 22.9236 15.7189 -68.964 -8.18656 -7.97644 32.7528 2.99976 -10.302 -8.10162 9.67545 7.08946 7.27852 -2.20538 1.74257 1.89566 -0.338234 2.88697 3.15492 -0.476001 -0.46236 -0.831689 0.091029 -0.463818 -0.83777 0.0964412 -8.28859 -14.8053 1.74881 -4.13537 -8.26813 -4.1495 73.2056 15.1944 66.0536 8.7053 -24.0099 -6.47238 39.6945 -12.8007 -3.54421 28.184 10.7294 19.1592 2.78602e-15 1.49089e-15 -10 1.58821e-15 9.93923e-16 -10 -3.18055e-15 0 3.18055e-15 19.9818 0.871897 2.3964 24 5.56597e-15 2.22639e-14 20 4.77083e-15 1.59028e-14 -3.18055e-15 0 3.18055e-15 20 7.95139e-16 6.36111e-15 24 2.38542e-15 9.54166e-15 20 4.77083e-15 1.59028e-14 -3.18055e-15 0 3.18055e-15 19.9748 -1.02565 -2.81938 24 3.18055e-15 1.59028e-14 20 3.18055e-15 -0 -3.18055e-15 0 3.18055e-15 19.7815 -3.00948 -8.30515 24 -2.78299e-15 1.90833e-14 20 0 3.18055e-15 -0.168092 -10.5099 -27.7408 -38.6091 38.1163 -76.1867 40.8623 -64.0648 37.7883 7.28183 13.5148 -3.42918 -28.184 10.7294 -19.1592 -0 0 10 4.07085e-15 -4.77083e-15 10 1.59028e-15 -6.36111e-15 3.97569e-16 -19.9818 0.871897 -2.3964 -24 4.77083e-15 3.18055e-15 -20 0 -7.95139e-15 1.59028e-15 -6.36111e-15 3.97569e-16 -20 -3.18055e-15 -0 -24 1.11319e-14 -0 -20 -1.59028e-15 -1.59028e-15 1.59028e-15 -6.36111e-15 3.97569e-16 -19.9748 -1.02565 2.81938 -24 -4.77083e-15 -4.77083e-15 -20 0 -0 1.59028e-15 -6.36111e-15 3.97569e-16 -19.7815 -3.00948 8.30515 -24 4.77083e-15 4.77083e-15 -20 1.59028e-15 -1.59028e-15 
682.807 90.0166 262.243 31.2281 26.9042 -48.1189 -32.6135 -57.3182 -29.3227 0.746525 26.0835 -23.1778 11.13 0.342399 22.9227 15.889 -68.8218 -8.47845 -8.2988 32.7335 3.59791 -10.3058 -8.19464 9.74177 7.06547 7.2925 -2.22327 1.73627 1.89947 -0.34323 2.87674 3.16214 -0.484596 -0.466216 -0.831412 0.0971274 -0.467694 -0.837545 0.102586 -8.35329 -14.8053 1.85734 -3.68165 -8.1072 -4.56691 72.5876 15.6031 66.2554 8.91884 -24.539 -5.95284 39.6651 -12.7672 -3.63694 28.184 10.7294 19.1592 9.49546e-15 1.19271e-15 -10 7.97312e-15 0 -10 3.18055e-15 0 -0 19.9818 0.871897 2.3964 24 7.95139e-16 6.36111e-15 20 1.59028e-15 1.27222e-14 3.18055e-15 0 -0 20 -2.38542e-15 -0 24 3.18055e-15 9.54166e-15 20 6.36111e-15 2.22639e-14 3.18055e-15 0 -0 19.9748 -1.02565 -2.81938 24 -1.59028e-15 3.18055e-15 20 4.77083e-15 -0 3.18055e-15 0 -0 19.7815 -3.00948 -8.30515 24 3.97569e-16 1.90833e-14 20 3.18055e-15 6.36111e-15 -0.199504 -10.5215 -27.7668 -38.4235 38.1391 -76.3245 40.5733 -63.704 37.6085 7.31438 13.4196 -3.36475 -28.184 10.7294 -19.1592 3.79044e-15 -3.18055e-15 10 5.60818e-16 -3.18055e-15 10 -7.95139e-16 -9.54166e-15 -1.98785e-16 -19.9818 0.871897 -2.3964 -24 -3.18055e-15 1.43125e-14 -20 -1.59028e-15 1.43125e-14 -7.95139e-16 -9.54166e-15 -1.98785e-16 -20 -3.18055e-15 7.95139e-15 -24 0 1.27222e-14 -20 -3.18055e-15 4.77083e-15 -7.95139e-16 -9.54166e-15 -1.98785e-16 -19.9748 -1.02565 2.81938 -24 -1.59028e-15 1.27222e-14 -20 1.59028e-15 6.36111e-15 -7.95139e-16 -9.54166e-15 -1.98785e-16 -19.7815 -3.00948 8.30515 -24 -4.77083e-15 6.36111e-15 -20 -5.56597e-15 7.95139e-15 
682.799 90.0101 262.235 31.2303 26.7867 -48.2861 -32.384 -57.3842 -29.014 0.667498 26.0999 -23.1109 11.1378 0.358565 22.9228 16.1429 -68.7017 -8.23226 -8.35769 32.7926 3.6528 -10.308 -8.28459 9.80909 7.05105 7.3028 -2.25316 1.73226 1.90347 -0.351124 2.87027 3.16896 -0.49796 -0.471122 -0.831135 0.103829 -0.472642 -0.837324 0.109351 -8.42996 -14.8097 1.97686 -3.57621 -8.01331 -4.62454 72.4528 15.5845 66.182 9.1259 -24.9688 -5.48754 39.6573 -12.6924 -3.71782 28.184 10.7294 19.1592 1.30847e-14 2.08724e-15 -10 7.43283e-15 2.08724e-15 -10 3.18055e-15 3.18055e-15 -6.36111e-15 19.9818 0.871897 2.3964 24 2.38542e-15 -6.36111e-15 20 1.59028e-15 9.54166e-15 3.18055e-15 3.18055e-15 -6.36111e-15 20 -1.59028e-15 6.36111e-15 24 6.36111e-15 -6.36111e-15 20 1.59028e-15 -0 3.18055e-15 3.18055e-15 -6.36111e-15 19.9748 -1.02565 -2.81938 24 7.95139e-16 6.36111e-15 20 -4.77083e-15 3.18055e-15 3.18055e-15 3.18055e-15 -6.36111e-15 19.7815 -3.00948 -8.30515 24 4.37326e-15 -0 20 -1.59028e-15 -3.18055e-15 -0.23966 -10.5398 -27.7883 -38.3063 38.1409 -76.3903 40.1863 -63.3201 37.3342 7.34305 13.3233 -3.29862 -28.184 10.7294 -19.1592 -2.6688e-15 -3.18055e-15 10 6.87985e-15 -2.38542e-15 10 -2.75869e-32 1.59028e-15 9.93923e-16 -19.9818 0.871897 -2.3964 -24 3.18055e-15 1.43125e-14 -20 2.38542e-15 6.36111e-15 -2.75869e-32 1.59028e-15 9.93923e-16 -20 1.59028e-15 1.43125e-14 -24 3.18055e-15 1.11319e-14 -20 0 6.36111e-15 -2.75869e-32 1.59028e-15 9.93923e-16 -19.9748 -1.02565 2.81938 -24 1.59028e-15 1.43125e-14 -20 1.59028e-15 7.95139e-15 -2.75869e-32 1.59028e-15 9.93923e-16 -19.7815 -3.00948 8.30515 -24 1.59028e-15 1.74931e-14 -20 1.59028e-15 1.11319e-14 
